<svg width="60" height="60" viewBox="0 0 60 60" fill="none" xmlns="http://www.w3.org/2000/svg">
<path d="M59.7191 35.273L44.7767 21.3113C43.5331 20.1389 42.1559 19.0192 40.3627 18.8425C41.7658 15.0406 41.5675 11.3465 39.7722 7.61379C38.8904 5.73383 37.6483 4.02341 36.1082 2.56841C34.2375 0.863587 32.1857 0 30.0153 0C24.3513 0 21.1184 5.82769 20.2563 7.61379C18.4674 11.3303 18.2649 15.0081 19.6464 18.7896C17.8489 18.9644 16.4803 20.086 15.2259 21.2585L0.285696 35.2242C0.116266 35.3832 0.0150787 35.5956 0.00155448 35.8206C-0.0119697 36.0456 0.0631216 36.2674 0.212418 36.4434L4.53802 41.5131C4.69827 41.7009 4.93063 41.8213 5.1846 41.8484C5.31222 41.8615 5.44135 41.8503 5.56428 41.8154C5.68721 41.7805 5.80143 41.7226 5.90014 41.6452L16.5514 33.4036L13.4392 55.552C13.4222 55.6772 13.4326 55.8043 13.4696 55.9256C13.5067 56.0469 13.5697 56.1597 13.6548 56.2571C13.7905 56.4095 17.0234 59.9431 27.1984 59.9431C27.4554 59.9426 27.7018 59.8461 27.8836 59.6747C28.0653 59.5033 28.1677 59.2711 28.1683 59.0287V56.6127H31.8322V59.0856C31.8322 59.3281 31.9344 59.5607 32.1163 59.7322C32.2981 59.9037 32.5448 60 32.8021 60C42.9684 60 46.2035 56.4583 46.3371 56.3079C46.4228 56.2112 46.4862 56.0988 46.5233 55.9778C46.5604 55.8567 46.5704 55.7297 46.5526 55.6049L43.4426 33.4564L54.0939 41.696C54.1931 41.7725 54.3074 41.8299 54.4302 41.8647C54.553 41.8996 54.6818 41.9113 54.8094 41.8992C54.9354 41.8859 55.0574 41.8492 55.1684 41.7913C55.2793 41.7334 55.377 41.6555 55.456 41.5619L59.7816 36.4962C59.933 36.3209 60.0104 36.0991 59.9989 35.8733C59.9873 35.6475 59.8877 35.4337 59.7191 35.273ZM54.5702 39.6966L42.7766 30.571C42.6262 30.4543 42.442 30.383 42.248 30.3664C42.054 30.3498 41.8592 30.3886 41.689 30.4779C41.5187 30.5671 41.3809 30.7026 41.2935 30.8667C41.2061 31.0308 41.1732 31.216 41.1989 31.398L44.5698 55.3996C43.3262 56.4339 39.895 58.0066 33.7762 58.159V31.8146C33.7762 31.572 33.6741 31.3395 33.4922 31.168C33.3103 30.9965 33.0636 30.9002 32.8064 30.9002C32.5491 30.9002 32.3025 30.9965 32.1206 31.168C31.9387 31.3395 31.8365 31.572 31.8365 31.8146V54.7758H28.1726V31.7638C28.1726 31.5212 28.0704 31.2887 27.8885 31.1172C27.7066 30.9457 27.4599 30.8494 27.2027 30.8494C26.9455 30.8494 26.6988 30.9457 26.5169 31.1172C26.335 31.2887 26.2328 31.5212 26.2328 31.7638V58.1143C20.1054 57.9619 16.6721 56.3831 15.4372 55.3549L18.8058 31.3472C18.8283 31.1673 18.7937 30.9851 18.7064 30.8237C18.6191 30.6623 18.483 30.5289 18.3153 30.4404C18.1476 30.3519 17.9559 30.3123 17.7643 30.3265C17.5727 30.3407 17.3899 30.4081 17.239 30.5202L5.43461 39.6478L2.27284 35.9415L16.5924 22.5549C18.017 21.2219 19.0946 20.4944 20.433 20.6082C20.5386 20.8114 20.6486 21.0329 20.7606 21.2442C22.0538 23.6603 23.1314 24.6701 26.3514 24.6701C26.6086 24.6701 26.8553 24.5738 27.0372 24.4023C27.2191 24.2308 27.3212 23.9983 27.3212 23.7558C27.3212 23.5132 27.2191 23.2807 27.0372 23.1092C26.8553 22.9377 26.6086 22.8414 26.3514 22.8414C24.1552 22.8414 23.6142 22.502 22.4913 20.4172C22.3103 20.0799 22.1422 19.7413 21.987 19.4012C20.2218 15.5994 20.2412 12.0618 22.0236 8.3514C24.944 2.30019 28.8773 1.82877 30.0153 1.82877C31.1533 1.82877 35.0866 2.30019 38.0049 8.36765C39.8002 12.0983 39.8067 15.6563 38.0049 19.4846C38 19.4964 37.9942 19.508 37.9876 19.5191C37.8439 19.8198 37.6923 20.1212 37.5329 20.4233C36.41 22.5081 35.869 22.8475 33.6728 22.8475C33.4156 22.8475 33.1689 22.9438 32.987 23.1153C32.8051 23.2868 32.7029 23.5193 32.7029 23.7619C32.7029 24.0044 32.8051 24.2369 32.987 24.4084C33.1689 24.5799 33.4156 24.6762 33.6728 24.6762C36.9057 24.6762 37.9618 23.6603 39.2635 21.2503C39.3691 21.0471 39.4683 20.8602 39.5653 20.6651C40.9037 20.5513 41.9813 21.2747 43.4059 22.6097L57.7255 35.9923L54.5702 39.6966Z" fill="#42506B"/>
<path d="M34.3885 21.4577C34.1981 21.6358 33.9656 21.7689 33.7101 21.8459C33.4546 21.9229 33.1833 21.9416 32.9186 21.9006C32.8066 21.8783 32.6897 21.8988 32.5937 21.9576C32.4977 22.0165 32.4305 22.1089 32.4067 22.2146C32.383 22.3202 32.4048 22.4304 32.4672 22.5209C32.5297 22.6114 32.6277 22.6748 32.7397 22.6972C32.8819 22.7215 33.0262 22.7338 33.1708 22.7337C33.5062 22.7373 33.839 22.6778 34.1499 22.5588C34.4607 22.4399 34.7433 22.2638 34.9812 22.0408C36.1127 20.972 36.3131 18.8283 35.576 15.6726C33.938 8.66031 33.035 6.01062 30.0176 6.01062H29.9939C26.9766 6.01062 26.0714 8.65218 24.4355 15.6726C23.6984 18.8283 23.8989 20.972 25.0304 22.0408C25.3235 22.3103 25.6804 22.5104 26.0716 22.6245C26.4627 22.7386 26.8771 22.7635 27.2805 22.6972C27.3925 22.6745 27.4904 22.6109 27.5526 22.5202C27.6149 22.4295 27.6364 22.3192 27.6124 22.2135C27.5884 22.1079 27.5208 22.0156 27.4246 21.9569C27.3284 21.8982 27.2114 21.878 27.0994 21.9006C26.8371 21.94 26.5686 21.9203 26.3158 21.8434C26.063 21.7664 25.833 21.6342 25.6446 21.4577C25.0239 20.8643 24.4592 19.4074 25.2912 15.8474C27.0154 8.42663 27.8602 6.82341 30.0069 6.82341H30.0306C32.175 6.82341 33.0134 8.42663 34.7463 15.8474C35.5739 19.4074 35.0092 20.8643 34.3885 21.4577Z" fill="#42506B"/>
<path d="M27.1253 25.3752C25.473 26.3639 24.1206 27.7393 23.2001 29.3675C22.2796 30.9957 21.8223 32.821 21.8729 34.6654C21.8768 34.7707 21.924 34.8705 22.0044 34.9436C22.0848 35.0168 22.1922 35.0576 22.304 35.0576H22.3191C22.3757 35.0557 22.4314 35.0434 22.4829 35.0213C22.5345 34.9991 22.5809 34.9676 22.6195 34.9286C22.6582 34.8895 22.6882 34.8436 22.7081 34.7936C22.7279 34.7436 22.737 34.6903 22.735 34.637C22.6878 32.9349 23.1098 31.2504 23.9598 29.7481C24.8098 28.2458 26.0587 26.9772 27.5844 26.0661C27.6815 26.009 27.7507 25.9178 27.7765 25.8126C27.8024 25.7075 27.7829 25.5969 27.7223 25.5053C27.6617 25.4137 27.565 25.3485 27.4534 25.3241C27.3419 25.2997 27.2246 25.3181 27.1274 25.3752H27.1253Z" fill="#42506B"/>
<path d="M38.7094 31.1623C37.3076 30.584 36.0589 29.7204 35.0528 28.6335C34.0467 27.5465 33.3082 26.2631 32.8902 24.8754C32.8799 24.8202 32.8576 24.7675 32.8247 24.7208C32.7918 24.6741 32.7489 24.6344 32.6989 24.604C32.6489 24.5737 32.5927 24.5534 32.534 24.5446C32.4752 24.5357 32.4152 24.5384 32.3576 24.5524C32.3 24.5665 32.2462 24.5916 32.1994 24.6263C32.1526 24.6609 32.114 24.7043 32.0858 24.7538C32.0577 24.8032 32.0408 24.8576 32.036 24.9135C32.0313 24.9694 32.0389 25.0256 32.0583 25.0786C32.5117 26.5845 33.3128 27.9771 34.4042 29.1568C35.4956 30.3365 36.8502 31.2739 38.3711 31.9019C38.4242 31.9233 38.4814 31.9343 38.5392 31.9345C38.6386 31.9347 38.7352 31.9026 38.8124 31.8434C38.8896 31.7843 38.9427 31.7018 38.9627 31.61C38.9828 31.5181 38.9685 31.4225 38.9223 31.3395C38.8762 31.2564 38.801 31.1909 38.7094 31.1542V31.1623Z" fill="#42506B"/>
<path d="M35.5888 40.7836C35.8871 40.7836 36.1788 40.7002 36.4269 40.5439C36.675 40.3876 36.8684 40.1654 36.9826 39.9055C37.0968 39.6456 37.1267 39.3596 37.0684 39.0837C37.0102 38.8078 36.8666 38.5544 36.6556 38.3554C36.4446 38.1565 36.1757 38.0211 35.8831 37.9662C35.5904 37.9113 35.2871 37.9395 35.0114 38.0471C34.7357 38.1548 34.5001 38.3371 34.3343 38.571C34.1686 38.8049 34.0801 39.0799 34.0801 39.3612C34.0801 39.7385 34.239 40.1002 34.522 40.367C34.8049 40.6337 35.1886 40.7836 35.5888 40.7836ZM35.5888 38.7516C35.7166 38.7516 35.8416 38.7874 35.948 38.8544C36.0543 38.9213 36.1372 39.0166 36.1861 39.1279C36.2351 39.2393 36.2479 39.3619 36.2229 39.4801C36.198 39.5984 36.1364 39.707 36.046 39.7923C35.9555 39.8775 35.8403 39.9356 35.7149 39.9591C35.5895 39.9826 35.4595 39.9706 35.3413 39.9244C35.2232 39.8783 35.1222 39.8001 35.0511 39.6999C34.9801 39.5996 34.9422 39.4818 34.9422 39.3612C34.9419 39.281 34.9584 39.2015 34.9908 39.1273C35.0231 39.0531 35.0707 38.9857 35.1308 38.9289C35.1909 38.872 35.2622 38.827 35.3408 38.7962C35.4194 38.7654 35.5037 38.7496 35.5888 38.7496V38.7516Z" fill="#42506B"/>
<path d="M36.0282 48.3609C36.3266 48.3609 36.6183 48.2774 36.8664 48.1212C37.1145 47.9649 37.3079 47.7427 37.4221 47.4828C37.5362 47.2229 37.5661 46.9369 37.5079 46.661C37.4497 46.3851 37.306 46.1316 37.095 45.9327C36.884 45.7338 36.6152 45.5983 36.3225 45.5434C36.0299 45.4886 35.7265 45.5167 35.4509 45.6244C35.1752 45.732 34.9396 45.9144 34.7738 46.1483C34.608 46.3822 34.5195 46.6572 34.5195 46.9385C34.5195 47.3157 34.6785 47.6775 34.9614 47.9443C35.2443 48.211 35.6281 48.3609 36.0282 48.3609ZM36.0282 46.3289C36.1561 46.3289 36.2811 46.3647 36.3874 46.4316C36.4938 46.4986 36.5766 46.5938 36.6256 46.7052C36.6745 46.8166 36.6873 46.9392 36.6624 47.0574C36.6374 47.1757 36.5758 47.2843 36.4854 47.3695C36.395 47.4548 36.2798 47.5128 36.1544 47.5364C36.0289 47.5599 35.8989 47.5478 35.7808 47.5017C35.6626 47.4555 35.5617 47.3774 35.4906 47.2772C35.4196 47.1769 35.3816 47.0591 35.3816 46.9385C35.3816 46.7768 35.4498 46.6218 35.571 46.5074C35.6923 46.3931 35.8567 46.3289 36.0282 46.3289Z" fill="#42506B"/>
<path d="M36.2528 53.1055C35.9544 53.1055 35.6627 53.1889 35.4146 53.3452C35.1665 53.5015 34.9732 53.7236 34.859 53.9835C34.7448 54.2434 34.7149 54.5294 34.7731 54.8053C34.8313 55.0813 34.975 55.3347 35.186 55.5336C35.397 55.7325 35.6658 55.868 35.9585 55.9229C36.2511 55.9778 36.5545 55.9496 36.8302 55.842C37.1058 55.7343 37.3415 55.552 37.5072 55.3181C37.673 55.0842 37.7615 54.8092 37.7615 54.5278C37.7615 54.1506 37.6026 53.7888 37.3196 53.5221C37.0367 53.2553 36.6529 53.1055 36.2528 53.1055ZM36.2528 55.1374C36.1249 55.1374 35.9999 55.1017 35.8936 55.0347C35.7873 54.9677 35.7044 54.8725 35.6555 54.7611C35.6065 54.6497 35.5937 54.5272 35.6187 54.4089C35.6436 54.2907 35.7052 54.1821 35.7956 54.0968C35.886 54.0115 36.0013 53.9535 36.1267 53.93C36.2521 53.9064 36.3821 53.9185 36.5003 53.9647C36.6184 54.0108 36.7194 54.0889 36.7904 54.1892C36.8615 54.2894 36.8994 54.4073 36.8994 54.5278C36.8997 54.6081 36.8832 54.6876 36.8508 54.7618C36.8184 54.8359 36.7709 54.9034 36.7108 54.9602C36.6507 55.017 36.5793 55.0621 36.5008 55.0929C36.4222 55.1236 36.3379 55.1395 36.2528 55.1395V55.1374Z" fill="#42506B"/>
</svg>
