<svg width="30" height="30" viewBox="0 0 46 46" fill="none" xmlns="http://www.w3.org/2000/svg">
<path d="M40.5335 0H5.46911C2.44901 0 0 2.4423 0 5.45567V40.5443C0 43.559 2.44901 46 5.46911 46H40.5335C43.5523 46 46 43.559 46 40.5443V5.45567C46 2.44363 43.5536 0 40.5335 0ZM33.063 7.18879C33.063 6.39461 33.7071 5.7505 34.5013 5.7505H38.8137C39.6079 5.7505 40.252 6.39461 40.252 7.18879V11.501C40.252 12.2938 39.6079 12.9393 38.8137 12.9393H34.5013C33.7071 12.9393 33.063 12.2952 33.063 11.501V7.18879ZM23.0531 14.2302C27.9392 14.2302 31.8996 18.1811 31.8996 23.0551C31.8996 27.9291 27.9392 31.8814 23.0531 31.8814C18.1684 31.8814 14.2093 27.9291 14.2093 23.0551C14.2093 18.1798 18.1684 14.2302 23.0531 14.2302ZM41.689 40.2508C41.689 41.0437 41.0435 41.6891 40.252 41.6891H5.75067C4.95646 41.6891 4.31234 41.045 4.31234 40.2508V18.6885H10.063C9.31395 19.7668 9.06161 21.7775 9.06161 23.0538C9.06161 30.7512 15.3382 37.0157 23.0531 37.0157C30.772 37.0157 37.0473 30.7525 37.0473 23.0538C37.0473 21.7775 36.8667 19.7961 35.9383 18.6885H41.689V40.2508Z" fill="white"/>
</svg>
