<svg width="20" height="21" viewBox="0 0 20 21" fill="none" xmlns="http://www.w3.org/2000/svg">
<path d="M17.6233 0.386719H2.37787C1.06479 0.386719 0 1.44859 0 2.75875V18.0147C0 19.3254 1.06479 20.3867 2.37787 20.3867H17.6233C18.9358 20.3867 20 19.3254 20 18.0147V2.75875C20 1.44917 18.9364 0.386719 17.6233 0.386719ZM14.3752 3.51228C14.3752 3.16698 14.6553 2.88694 15.0006 2.88694H16.8755C17.2208 2.88694 17.5009 3.16698 17.5009 3.51228V5.38715C17.5009 5.73187 17.2208 6.01249 16.8755 6.01249H15.0006C14.6553 6.01249 14.3752 5.73245 14.3752 5.38715V3.51228ZM10.0231 6.57374C12.1475 6.57374 13.8694 8.29156 13.8694 10.4107C13.8694 12.5298 12.1475 14.2482 10.0231 14.2482C7.8993 14.2482 6.17797 12.5298 6.17797 10.4107C6.17797 8.29098 7.8993 6.57374 10.0231 6.57374ZM18.1256 17.8871C18.1256 18.2318 17.845 18.5124 17.5009 18.5124H2.50029C2.15498 18.5124 1.87493 18.2324 1.87493 17.8871V8.51213H4.37522C4.04954 8.981 3.93983 9.85521 3.93983 10.4101C3.93983 13.7568 6.66878 16.4805 10.0231 16.4805C13.3791 16.4805 16.1075 13.7574 16.1075 10.4101C16.1075 9.85521 16.029 8.9937 15.6254 8.51213H18.1256V17.8871Z" fill="white"/>
</svg>
