<svg width="58" height="57" viewBox="0 0 58 57" fill="none" xmlns="http://www.w3.org/2000/svg">
<g clip-path="url(#clip0_97_6)" filter="url(#filter0_d_97_6)">
<path d="M16.8042 35.2574C16.981 34.8363 16.333 34.6123 16.1753 35.0257C15.9915 35.4405 16.6596 35.6779 16.8042 35.2574Z" fill="#FF0000"/>
<path d="M34.7639 45.3167C36.7167 45.4386 36.7361 42.4967 34.8152 42.4623C32.9547 42.5682 33.16 45.1984 34.7639 45.3167ZM35.6082 43.7432C35.8468 44.888 34.1658 45.0524 34.1107 43.9183C34.0658 43.0174 35.3695 42.6529 35.6082 43.7432Z" fill="#FFD700"/>
<path d="M45.6876 41.639C45.6684 41.6333 45.6841 41.6358 45.6876 41.639V41.639Z" fill="black"/>
<path d="M41.7779 35.3216C41.9984 34.9516 41.4029 34.5803 41.1829 34.9634C40.9643 35.3342 41.5568 35.7069 41.7779 35.3216Z" fill="#FF0000"/>
<path d="M52.3584 27.3223C52.227 27.24 52.0844 27.177 51.935 27.1354C51.9322 26.6664 51.8982 26.198 51.8332 25.7335C53.428 25.0435 52.8596 22.6544 51.1068 22.8635C50.901 22.3199 50.6495 21.7947 50.355 21.2935C51.584 19.9308 49.8838 17.9304 48.3939 19.0448C47.9972 18.7401 47.5679 18.4802 47.1139 18.27C47.3972 16.4346 44.7939 15.7418 44.2366 17.5312C43.7545 17.4893 43.27 17.4808 42.7866 17.5055C42.5542 17.2698 42.309 17.0471 42.052 16.8384C42.8196 15.4035 40.662 14.172 39.8208 15.5645C38.8587 15.2081 37.8397 15.0296 36.8137 15.0378C36.3043 13.5468 34.0296 13.8947 34.1185 15.5352C33.0656 15.9204 32.0825 16.4982 31.3429 17.3266C31.2989 16.1 31.7829 14.5499 30.2578 14.0859C30.31 13.5779 30.4497 13.0346 30.8807 12.718C31.8836 12.0392 33.0825 12.7694 32.7619 13.9726C32.8112 14.2389 33.1571 14.255 33.3059 14.0798C35.2518 12.6805 33.8324 9.524 31.5304 9.8898C33.475 6.93861 29.8763 4.8084 29.3004 2.1218C29.2428 1.8146 28.7383 1.8148 28.6804 2.1218C28.1018 4.8018 24.4976 6.9255 26.4242 9.8784C24.1165 9.5276 22.7085 12.6895 24.6553 14.0913C24.8122 14.2719 25.1711 14.2549 25.2223 13.9768C24.9154 12.7717 26.0723 12.0661 27.0738 12.7455C27.4971 13.0649 27.6138 13.6032 27.6396 14.1055C26.1975 14.5931 26.6679 16.1646 26.6358 17.3367C25.8958 16.5035 24.9097 15.923 23.8534 15.5367C23.9316 13.8941 21.6713 13.5467 21.1556 15.0388C20.1292 15.0307 19.1099 15.2095 18.1475 15.5663C17.3196 14.1711 15.1539 15.405 15.9175 16.8398C15.6607 17.0484 15.4156 17.2709 15.1833 17.5065C14.6998 17.4821 14.2152 17.4934 13.7333 17.5403C13.1782 15.7242 10.5401 16.4489 10.861 18.3035C10.4134 18.5129 9.98781 18.7663 9.59044 19.06C8.11814 17.92 6.38794 19.9058 7.60304 21.28C7.29872 21.7824 7.03897 22.3104 6.82674 22.8581C5.10324 22.6828 4.56774 25.0641 6.12744 25.7305C6.07485 26.1961 6.04854 26.6643 6.04864 27.1329C4.39004 27.5747 4.71664 29.9886 6.39714 30.07C6.50458 30.515 6.63743 30.9534 6.79504 31.3832C5.41094 32.3155 6.45894 34.3532 8.01504 33.8732C8.16699 34.1155 8.33949 34.3442 8.53064 34.5569C8.13274 34.695 7.03924 35.1002 7.77714 35.5569C9.77634 36.3522 10.1949 38.5086 10.2827 40.4269C10.3072 41.2989 10.599 42.1815 11.6217 42.2683C11.6338 42.3891 11.6481 42.5097 11.6555 42.6308C10.3786 43.0563 10.3846 44.9694 11.7632 45.2087C11.7525 45.2998 11.7326 45.3897 11.7037 45.4768C11.6993 45.4726 11.6589 45.5222 11.6273 45.5634C11.252 45.6114 10.8972 45.7622 10.6022 45.9993C9.89804 46.5714 9.84854 47.8565 10.8731 48.0593C20.8092 48.0054 38.1573 48.2438 46.8198 47.9884C47.5343 47.9535 48.0379 47.234 47.7827 46.5657C47.549 45.969 46.9406 45.6546 46.3496 45.5717C46.3056 45.562 46.266 45.5379 46.2372 45.5033C46.2084 45.4686 46.192 45.4252 46.1905 45.3802C46.1891 45.3351 46.2027 45.2908 46.2293 45.2544C46.2558 45.2179 46.2938 45.1914 46.3371 45.1789C47.6057 44.8339 47.5301 43.0295 46.3148 42.6306C46.3235 42.4861 46.3427 42.3421 46.3553 42.1978C47.8312 42.0215 47.6337 40.6161 47.73 39.4613C47.9022 37.8255 48.5564 36.1873 50.1886 35.54C50.9003 35.0938 49.8119 34.7091 49.4346 34.5715C49.6397 34.3587 49.8251 34.1277 49.9886 33.8815C51.5386 34.326 52.5424 32.3015 51.1747 31.3815C51.332 30.9517 51.4663 30.514 51.5773 30.07C53.001 30.0087 53.5734 28.1079 52.3584 27.3223ZM46.0096 26.8773C46.9996 26.3268 46.8453 24.7394 45.7364 24.4273C45.7012 23.6374 45.5845 22.8533 45.3883 22.0873C45.3703 22.0184 45.3726 21.9457 45.3952 21.8781C45.4177 21.8105 45.4594 21.7509 45.5152 21.7066L45.5186 21.7038C45.5707 21.6629 45.6329 21.637 45.6986 21.6289C45.7643 21.6208 45.831 21.6307 45.8914 21.6577C50.826 23.8092 49.6434 30.6891 46.8786 34.2892C47.5849 31.8346 47.2366 29.1673 46.0093 26.8773H46.0096ZM44.1775 29.3034C43.0334 29.1902 42.5527 30.5934 43.3215 31.3807C43.1646 31.7483 43.0043 32.1194 42.859 32.4957C41.8009 32.6169 43.1151 29.4989 43.0538 28.9349C43.4467 27.1831 43.6886 25.3174 43.4146 23.5229C43.3902 23.3765 43.3992 23.2265 43.441 23.084C43.4829 22.9416 43.5564 22.8105 43.6561 22.7006C43.7531 22.5852 43.8876 22.5075 44.036 22.4812C44.1845 22.4548 44.3375 22.4815 44.4682 22.5566C45.0841 22.9034 45.0107 23.7335 45.0821 24.348C43.7089 24.6187 43.5612 26.5245 44.8644 26.9992C44.6909 27.7827 44.4613 28.5528 44.1775 29.3034ZM44.6489 30.7692C44.2374 31.5766 43.3402 30.834 43.646 30.1745C44.0098 29.5836 44.9283 30.1926 44.6493 30.7692H44.6489ZM44.6251 25.436C44.6468 25.3146 44.7111 25.2051 44.8066 25.1271C45.2678 24.7471 45.9691 25.222 45.7811 25.789C45.6136 26.2942 44.8845 26.5463 44.6454 25.7248C44.6162 25.6315 44.6092 25.5325 44.6251 25.436ZM49.5807 19.4032C49.6347 19.4263 49.6867 19.4537 49.7363 19.4851C49.8542 19.7038 49.8163 20.0543 49.5797 20.1886C49.3621 19.926 49.1269 19.6785 48.8756 19.4479C49.1118 19.3483 49.3205 19.2937 49.5807 19.4032ZM49.4672 21.0417C49.8727 21.6489 50.4563 22.4628 50.0736 23.1963C50.0271 23.273 49.964 23.3383 49.8889 23.3874C49.8138 23.4364 49.7286 23.468 49.6396 23.4797C49.5507 23.4914 49.4602 23.483 49.375 23.4551C49.2897 23.4271 49.2118 23.3804 49.147 23.3183C47.8329 20.1317 45.5697 20.5631 45.4529 18.376C47.0393 18.7667 48.462 19.6181 49.4672 21.0417ZM45.5523 17.1189C46.1323 17.0743 46.5081 17.4989 46.5033 18.0164C45.9731 17.8254 45.4251 17.6877 44.8675 17.6053C45.0426 17.3937 45.1684 17.1484 45.5523 17.1189ZM43.8153 20.283C44.0914 19.413 45.3145 19.6155 45.2316 20.5274C45.1438 21.474 43.6375 21.2747 43.8153 20.283ZM40.2878 16.0719C40.4286 15.4233 41.4733 15.4938 41.5656 16.1069C41.5248 16.511 40.9565 16.9643 40.5438 16.7861C40.4382 16.7033 40.3582 16.5923 40.3129 16.4659C40.2676 16.3396 40.2589 16.203 40.2878 16.0719ZM34.7717 15.2686C34.9228 14.6186 35.7976 14.6129 36.1517 15.0633C36.757 16.44 34.6178 16.75 34.7717 15.2686ZM32.9855 17.0752C33.2487 16.5459 33.7385 16.2669 34.2806 16.0976C34.8637 17.3198 36.7384 16.9529 36.8706 15.6233C37.8151 15.6244 38.7519 15.7921 39.638 16.1186C39.5203 17.1786 40.828 17.9586 41.6718 17.2797C41.7666 17.3574 41.8592 17.437 41.9498 17.5183C42.2411 17.7729 42.4597 18.1001 42.5834 18.4667C42.7141 18.8725 42.7094 19.2831 42.2513 19.4539C41.8029 19.621 41.4313 19.342 41.064 19.1039C38.9663 17.1281 35.7632 16.8653 33.3232 18.3792C32.4584 18.5046 32.7493 17.4591 32.9855 17.0752ZM35.9793 18.9531C38.7986 18.257 41.33 20.4653 42.3283 22.9587C39.0455 20.9087 34.2768 21.0801 31.1706 23.393C31.9001 21.2419 33.764 19.5 35.9793 18.9531ZM38.9169 34.2087C37.7637 35.3339 35.8669 35.8587 34.346 35.4213C33.596 34.8805 32.9099 34.1478 31.9884 33.9578C32.1353 33.2902 32.1075 32.4863 31.6141 31.5342C31.5107 31.3315 31.4539 31.1083 31.4479 30.8808C31.3731 28.5519 31.5055 27.1741 32.2625 24.9277C32.8163 23.212 34.5283 22.3244 36.2542 22.2634C37.3134 22.1234 38.3814 22.2189 39.3195 22.7501C43.9716 25.2427 41.8552 31.19 38.9164 34.2087H38.9169ZM30.4793 35.5224C31.8081 34.8881 32.8984 36.8261 31.9871 36.65C29.9815 35.526 29.0771 37.7021 29.9998 39.2752C31.1942 40.8001 32.8942 39.0081 34.3213 38.9152C35.7433 38.7287 37.2186 39.2418 36.7447 40.9092C36.5532 41.3153 36.1374 41.5292 35.7347 41.6092C34.1507 41.6088 32.5667 41.6085 30.9827 41.6083H27.9607C27.4739 41.4513 27.0798 41.182 27.0688 40.5688C27.2588 39.4188 28.4101 39.657 28.3037 37.8406C28.2749 37.1422 27.1031 36.0382 25.8953 36.6951C25.8566 36.7158 25.8127 36.7247 25.769 36.7208C25.7252 36.7168 25.6836 36.7001 25.6493 36.6727C25.615 36.6454 25.5894 36.6085 25.5758 36.5668C25.5621 36.5251 25.561 36.4803 25.5725 36.4379C25.7606 35.7146 26.4889 35.1179 27.492 35.5223C27.736 35.6207 27.9852 35.4742 27.9932 35.2347C28.0089 34.767 27.7155 34.4922 27.4181 34.1704C26.925 33.6368 27.0335 33.0393 27.5018 32.5327C28.08 31.9073 28.5888 31.3148 28.9874 30.5999C29.3837 31.3154 29.889 31.9113 30.47 32.5326C30.9124 33.0057 31.0576 33.5952 30.6026 34.1201C30.2985 34.471 29.9618 34.7301 29.9788 35.2347C29.9822 35.2919 29.9997 35.3473 30.0299 35.396C30.06 35.4447 30.1018 35.4852 30.1514 35.5137C30.2011 35.5422 30.257 35.558 30.3143 35.5595C30.3715 35.561 30.4282 35.5483 30.4793 35.5224ZM17.4775 43.679C17.4775 43.4729 17.4692 42.689 17.4692 42.689C17.4692 42.689 18.7707 43.4712 19.0992 43.688C19.0826 43.6889 17.8135 43.686 17.4775 43.679ZM18.9859 44.1737C18.6108 44.4137 17.4902 45.0532 17.4692 45.0611C17.4727 44.8347 17.4749 44.4003 17.4764 44.1734C17.887 44.2187 18.5793 44.1907 18.9859 44.1737ZM14.354 41.609C14.459 41.1866 14.0804 40.6381 14.4769 40.312C14.8476 40.076 15.3999 40.202 15.7128 39.8246C16.5876 38.8646 15.8769 37.3356 14.9328 37.3691C14.8934 37.3652 14.8561 37.3497 14.8255 37.3246C14.7949 37.2994 14.7724 37.2658 14.761 37.2278C14.7496 37.1899 14.7496 37.1495 14.7612 37.1116C14.7728 37.0737 14.7954 37.0401 14.826 37.0151C14.975 36.8947 15.1476 36.8071 15.3327 36.758C15.5178 36.7089 15.7112 36.6994 15.9002 36.7301C16.3173 36.8068 16.4962 36.2092 16.0777 36.0864C15.0862 35.6595 16.0447 34.0914 16.5247 33.5655C17.0711 34.2655 17.9935 35.784 16.9626 36.0865C16.5451 36.2091 16.7326 36.8483 17.14 36.73C17.6813 36.5729 18.1662 36.7361 18.4335 37.0752C18.4562 37.1043 18.4704 37.1391 18.4746 37.1758C18.4787 37.2125 18.4726 37.2496 18.457 37.283C18.4413 37.3165 18.4167 37.3449 18.3859 37.3652C18.3551 37.3855 18.3192 37.3969 18.2823 37.3981C17.6552 37.4144 16.8614 37.7681 17.0196 38.9132C17.0986 39.4848 17.4033 39.9845 17.9786 40.1313C20.7343 40.4849 21.8596 37.7913 25.1273 39.3853C25.8543 39.9653 25.6132 41.3793 24.6891 41.6088L14.354 41.609ZM10.8808 33.441C10.8874 33.4758 10.8816 33.5118 10.8643 33.5427C10.8471 33.5737 10.8195 33.5975 10.7864 33.6102C10.7534 33.6229 10.7169 33.6235 10.6834 33.6121C10.6499 33.6006 10.6215 33.5777 10.6031 33.5474C9.48494 31.67 8.67604 29.56 8.61084 27.3578C8.53964 25.0646 9.90944 22.5266 12.0808 21.6483C12.1413 21.6235 12.2072 21.6153 12.2719 21.6246C12.3365 21.6338 12.3975 21.6601 12.4486 21.7007L12.452 21.7035C12.509 21.7497 12.5515 21.8113 12.5742 21.8811C12.5969 21.9508 12.599 22.0256 12.5801 22.0965C12.3854 22.8595 12.2696 23.6405 12.2345 24.4272C11.1262 24.7398 10.9704 26.3272 11.9612 26.8772C10.8774 28.9 10.4779 31.2278 10.8808 33.441ZM14.1508 30.981C13.5362 31.5146 12.8217 30.4163 13.6708 29.9652C14.3552 29.755 14.6072 30.5431 14.151 30.9813L14.1508 30.981ZM14.6488 31.3804C15.4177 30.5925 14.9388 29.1892 13.7931 29.304C13.5092 28.5531 13.2796 27.7827 13.1059 26.9989C14.4098 26.5236 14.2608 24.6184 12.8882 24.3477C12.9793 23.6912 12.8715 22.7935 13.4893 22.3853C13.9641 22.1193 14.3684 22.6125 14.4893 23.0183C14.5312 23.1625 14.5602 23.3102 14.5758 23.4595C14.3758 24.723 14.44 26.032 14.6167 27.3077C14.7781 28.2861 14.9499 29.2498 15.1767 30.2104C15.2604 30.531 15.9456 32.6876 15.1109 32.4953C14.9662 32.1193 14.8059 31.7483 14.6493 31.3807L14.6488 31.3804ZM12.6231 24.9676C13.5462 25.221 13.2482 26.4437 12.3742 26.4256C11.5908 26.1074 11.8172 25.0525 12.6231 24.9676ZM23.8602 43.865C23.8847 44.9965 22.1712 44.9488 22.3465 43.8036C22.472 42.9059 23.8643 42.8863 23.8602 43.865ZM20.4209 45.3164C20.7389 44.9104 20.8909 44.4141 21.1595 43.979C21.3384 43.6746 21.8953 43.0437 21.7146 43.8444C21.6982 44.0436 21.7257 44.2441 21.7952 44.4315C21.8647 44.619 21.9745 44.7889 22.1168 44.9293C22.2591 45.0697 22.4305 45.1771 22.6189 45.2441C22.8073 45.311 23.008 45.3358 23.207 45.3167C24.3042 45.2497 24.867 43.8467 24.202 43.0028C24.1716 42.9632 24.1522 42.9163 24.1458 42.8667C24.1394 42.8172 24.1461 42.7669 24.1654 42.7208C24.1847 42.6748 24.2158 42.6346 24.2556 42.6045C24.2954 42.5743 24.3425 42.5552 24.392 42.5491C25.263 42.4461 26.2857 42.3647 27.064 42.5191C27.0892 42.5238 27.1125 42.5357 27.1309 42.5536C27.1493 42.5714 27.162 42.5943 27.1675 42.6193C27.1729 42.6443 27.1708 42.6704 27.1615 42.6943C27.1522 42.7181 27.136 42.7387 27.115 42.7534C26.7106 43.0383 25.9169 43.5966 25.8787 43.6177C25.8314 43.6464 25.7922 43.6868 25.765 43.7351C25.7378 43.7834 25.7235 43.8378 25.7235 43.8932C25.7235 43.9486 25.7378 44.0031 25.765 44.0513C25.7922 44.0996 25.8314 44.14 25.8787 44.1687C26.38 44.4714 28.5492 45.4781 28.6605 45.5327C25.8487 45.5327 23.037 45.5312 20.2252 45.5281C20.2961 45.4629 20.3615 45.3921 20.4209 45.3164ZM27.283 43.8029C27.2612 43.7987 27.2411 43.7882 27.2251 43.7728C27.2091 43.7573 27.198 43.7375 27.1931 43.7158C27.1881 43.6942 27.1896 43.6715 27.1973 43.6507C27.205 43.6298 27.2186 43.6117 27.2364 43.5984C27.7443 43.2146 28.2721 42.8579 28.8177 42.53C28.8736 42.4985 28.9372 42.4832 29.0014 42.4859C29.0655 42.4886 29.1276 42.5091 29.1806 42.5452C29.668 42.8767 30.3263 43.3781 30.8464 43.6437C30.5319 43.6531 30.0821 43.679 29.7834 43.7105C29.5201 43.7382 29.5078 44.1224 29.7834 44.1299C30.059 44.1374 30.8974 44.153 30.8974 44.153C30.4627 44.383 29.7574 44.5997 29.3116 44.8087C29.3043 44.6075 29.2709 43.498 29.1793 43.1609C29.1273 42.9698 28.7985 42.9426 28.7645 43.1609L28.7533 44.0848C28.7533 44.0848 27.7807 43.9 27.283 43.8029ZM28.4093 27.7364C28.4132 26.9936 29.5418 26.9936 29.5456 27.7364C29.5421 28.4793 28.4135 28.4792 28.4093 27.7364ZM27.3893 12.1782C26.9622 11.889 26.4396 11.7765 25.9312 11.8644C25.0297 12.0184 24.5874 11.5344 25.2231 10.7535C25.8231 10.3885 26.6036 10.4535 27.2424 10.8035C27.555 10.9746 27.9279 10.5435 27.6379 10.2909C24.9774 7.8942 27.8609 5.6138 28.9702 3.318C30.2134 5.8392 31.5027 7.4955 30.2485 10.3895C30.2292 10.4529 30.2288 10.5206 30.2473 10.5842C30.2659 10.6479 30.3025 10.7047 30.3528 10.7479C30.4032 10.791 30.465 10.8186 30.5307 10.8272C30.5964 10.8358 30.6632 10.8251 30.7229 10.7963C32.3339 9.8129 34.2658 11.3905 33.3829 13.1063C33.146 12.1516 32.0485 11.588 31.0151 11.9823C30.7151 12.0986 30.4877 12.2823 30.2065 12.4328C30.1117 12.4841 30.0051 12.5097 29.8974 12.5069C29.7896 12.5042 29.6844 12.4733 29.5923 12.4172C29.5003 12.3611 29.4245 12.2819 29.3726 12.1874C29.3207 12.0929 29.2945 11.9865 29.2965 11.8787C29.3159 10.414 29.3003 8.9465 29.3024 7.481C29.3032 6.8491 29.335 6.1956 29.2191 5.5744C29.208 5.51862 29.1778 5.46842 29.1338 5.43236C29.0898 5.39629 29.0346 5.37658 28.9777 5.37658C28.9208 5.37658 28.8657 5.39629 28.8217 5.43236C28.7777 5.46842 28.7475 5.51862 28.7363 5.5744C28.5609 6.8732 28.6887 8.2016 28.6512 9.5097C28.6512 10.1522 28.6465 10.7944 28.6526 11.4362C28.6544 11.5849 28.6168 11.7314 28.5437 11.8608C28.4707 11.9903 28.3647 12.0982 28.2365 12.1735C28.1083 12.2488 27.9625 12.2889 27.8138 12.2898C27.6651 12.2906 27.5189 12.2521 27.3898 12.1782H27.3893ZM27.4802 15.0887C27.8602 14.6568 28.4728 14.66 29.0037 14.674C29.7714 14.5873 30.727 14.8658 30.7582 15.7755C30.6395 19.4455 30.4755 23.1145 30.1982 26.776C30.1958 26.8091 30.1839 26.8407 30.164 26.8672C30.1441 26.8938 30.117 26.914 30.0859 26.9256C30.0549 26.9372 30.0211 26.9396 29.9887 26.9326C29.9563 26.9256 29.9266 26.9094 29.9031 26.886C29.6946 26.676 29.4214 26.5421 29.1276 26.506C28.8338 26.4699 28.5364 26.5336 28.2831 26.6868C28.2365 26.7183 28.1829 26.738 28.127 26.7442C28.0711 26.7505 28.0145 26.7432 27.9621 26.7228C27.9096 26.7025 27.8629 26.6698 27.8258 26.6275C27.7888 26.5851 27.7625 26.5345 27.7492 26.4798C27.7463 26.4663 27.7443 26.4525 27.7432 26.4387C27.6738 25.523 27.6168 24.6071 27.5574 23.6922C27.398 21.0749 27.288 18.4543 27.2129 15.8347C27.2121 15.5624 27.3069 15.2984 27.4807 15.0887H27.4802ZM27.0092 25.2287C27.1525 27.3377 27.3154 29.447 27.5423 31.5487C26.7065 32.2693 25.9731 33.2838 26.7062 34.3559C25.9622 34.2403 25.3349 34.6638 24.7762 35.0968C23.2418 36.0405 21.1497 35.8674 19.6237 34.9582C18.2197 33.9957 17.4912 32.3132 16.8515 30.7936C16.1447 29.1107 16.05 27.1874 16.7533 25.478C17.5786 23.5096 19.5654 22.0258 21.7163 22.2634C23.5335 22.4934 26.7514 23.0781 27.0093 25.2289L27.0092 25.2287ZM26.7992 23.392C23.6885 21.0786 18.9168 20.907 15.632 22.9651C16.441 20.5984 19.0064 18.4763 21.6437 18.879C23.9993 19.315 26.0405 21.1291 26.7993 23.3922L26.7992 23.392ZM21.8155 15.0676C22.1349 14.6502 22.9246 14.6111 23.1574 15.1422C23.2474 15.8641 22.3426 16.2822 21.7897 15.8343C21.7357 15.7129 21.71 15.5808 21.7145 15.4481C21.719 15.3153 21.7536 15.1852 21.8157 15.0678L21.8155 15.0676ZM16.5121 15.8447C16.8259 15.5127 17.5136 15.5147 17.6706 16.0265C17.7233 16.2042 17.7038 16.3954 17.6162 16.5587C17.5287 16.7221 17.3802 16.8442 17.203 16.8986C16.4953 17.0887 16.2047 16.2882 16.5123 15.8449L16.5121 15.8447ZM16.2993 17.2794C17.1409 17.958 18.4553 17.1781 18.3312 16.1194C19.2171 15.7927 20.1536 15.6248 21.0978 15.6235C21.2306 16.9502 23.1064 17.321 23.6913 16.0981C24.2327 16.2675 24.7227 16.5464 24.9854 17.0755C25.2082 17.4487 25.5224 18.4725 24.6722 18.3843C22.3494 16.9963 19.4116 17.046 17.2942 18.7825C16.7142 19.1279 16.2642 19.6319 15.6769 19.9425C14.9401 20.3261 14.8251 19.3696 15.0359 18.8571C15.2986 18.2183 15.7593 17.7017 16.2993 17.2794ZM13.3977 19.7157C14.6817 19.8531 13.7377 21.9218 12.615 20.8136C12.4477 20.312 12.8775 19.7342 13.3977 19.7157ZM12.3477 17.1175C12.4198 17.219 12.4529 17.343 12.4409 17.4668C12.429 17.5907 12.3729 17.7061 12.2828 17.792C12.0068 17.8634 11.7346 17.9488 11.4673 18.0479C11.4478 17.5371 11.797 17.1111 12.3482 17.1175H12.3477ZM8.16534 19.5308C8.60534 19.8955 8.25044 20.3833 7.97094 20.7198C7.70934 20.31 7.77934 19.8173 8.16534 19.5308ZM10.9101 18.9368C11.3412 18.7162 11.7944 18.5419 12.2621 18.4168C12.2919 18.4088 12.3232 18.4082 12.3532 18.4152C12.3832 18.4223 12.411 18.4366 12.4342 18.457C12.4573 18.4775 12.4749 18.5033 12.4856 18.5322C12.4963 18.5612 12.4996 18.5923 12.4952 18.6228C12.2169 20.6267 9.71944 20.2863 8.51144 24.1214C8.34894 24.4884 8.19414 24.8589 8.02474 25.2149C7.87394 25.7058 7.01754 26.9301 6.73374 25.9449C7.08634 23.17 8.31244 20.277 10.9101 18.9368ZM6.08144 23.6881C6.23404 23.5307 6.41814 23.5081 6.60144 23.4949C6.43823 24.0085 6.31125 24.5329 6.22144 25.0642C6.10768 24.9939 6.01162 24.8985 5.94066 24.7851C5.8697 24.6718 5.82576 24.5437 5.81223 24.4107C5.79869 24.2776 5.81593 24.1433 5.86261 24.018C5.9093 23.8927 5.98417 23.7798 6.08144 23.6881ZM5.61634 28.2874C5.70294 28.0121 5.88274 27.9124 6.06764 27.82C6.08064 28.3543 6.19294 28.8812 6.23764 29.4034C5.75804 29.2785 5.43934 28.8486 5.61634 28.2874ZM6.77174 32.6063C6.74794 32.3376 6.89414 32.1763 7.04554 32.0234C7.22845 32.4593 7.43681 32.8841 7.66954 33.2955C7.22634 33.3471 6.81934 33.1413 6.77174 32.6063ZM6.96704 28.7271C7.19504 28.2323 7.64894 28.1349 7.95054 28.8939C8.12434 29.4367 9.87684 32.8231 9.01684 33.5639C8.97741 33.5954 8.93165 33.6181 8.88268 33.6303C8.83372 33.6425 8.78269 33.6441 8.73307 33.6348C8.68346 33.6256 8.63641 33.6057 8.59515 33.5767C8.55388 33.5476 8.51936 33.51 8.49394 33.4664C7.73976 32.2447 7.19932 30.9033 6.89584 29.5C6.8359 29.2414 6.86086 28.9704 6.96704 28.7271ZM10.9619 40.6571C10.8841 38.6599 10.544 36.3119 8.62404 35.2352C9.93574 34.6541 11.311 35.3522 11.8266 36.663C12.1646 37.497 12.2722 38.3876 12.4816 39.2514C12.7197 40.0599 13.4004 40.7404 13.3992 41.6087C12.4693 41.5143 10.9627 42.04 10.9619 40.6575V40.6571ZM16.9744 45.1371C16.7933 45.0517 15.6737 44.1605 15.6737 44.1605C15.6737 44.1605 16.3913 44.1905 16.5137 44.1455C16.6786 44.0855 16.7718 43.8055 16.5694 43.719C16.4255 43.6574 15.5107 43.6615 15.3562 43.659C15.4513 43.5785 16.7774 42.7084 16.9741 42.6345C16.9744 42.6352 16.9559 44.5478 16.9744 45.1375V45.1371ZM29.5013 46.9212C29.4322 47.2964 29.0497 47.4468 28.7125 47.4612L17.2233 47.4582C17.0177 45.475 22.7833 46.3482 24.1791 46.1656C25.6349 46.1664 27.0907 46.1667 28.5464 46.1665C29.1517 46.1663 29.5974 46.3993 29.5013 46.9212ZM31.0147 45.0293C31.2647 44.6646 32.6063 44.0579 31.959 43.587C31.7435 43.4683 31.5271 43.3443 31.309 43.219C31.2436 43.182 31.1889 43.1286 31.1504 43.064C31.1119 42.9995 31.0909 42.9259 31.0895 42.8508C31.0881 42.7756 31.1064 42.7014 31.1425 42.6354C31.1786 42.5694 31.2313 42.5141 31.2953 42.4747C31.4426 42.3902 33.4624 42.2023 35.9586 42.267C37.1937 42.377 37.3018 45.5925 35.8944 45.518C35.3907 45.5485 34.8811 45.5218 34.3753 45.5312C33.2747 45.5319 32.1741 45.5321 31.0735 45.5318C30.7981 45.443 30.8427 45.207 31.0147 45.0293ZM37.0307 47.1993C36.6418 47.4649 36.1968 47.3934 35.7594 47.4627C34.3736 47.462 32.9878 47.4615 31.602 47.4612C30.8884 47.3818 30.8969 46.7621 31.285 46.3212C31.535 46.1298 31.895 46.1812 32.1956 46.1723C33.7356 46.1551 35.2782 46.1694 36.819 46.1623C37.3074 46.3419 37.5255 46.8775 37.0307 47.2V47.1993ZM40.3941 42.9007C40.395 42.9887 40.4009 43.2832 40.4151 43.3636C40.4524 43.5762 40.8071 43.5763 40.8445 43.3636C40.8632 43.182 40.8699 42.9994 40.8645 42.817C40.8645 42.817 42.0087 43.5882 42.1399 43.7008C41.4968 43.7134 40.6116 43.7455 39.972 43.7965C39.6903 43.8189 39.6815 44.2449 39.972 44.2418C40.1307 44.2401 40.2898 44.2397 40.4492 44.2393C40.4613 44.3771 40.4392 45.0072 40.4379 45.0064C39.9228 44.7698 38.7279 43.9777 38.7279 43.9777C38.7279 43.9777 39.8961 43.1434 40.3941 42.9012V42.9007ZM40.8987 44.4462C40.8983 44.4189 40.9032 44.3918 40.9133 44.3664C40.9234 44.3411 40.9384 44.318 40.9574 44.2985C40.9765 44.2789 40.9992 44.2634 41.0244 44.2527C41.0495 44.242 41.0765 44.2364 41.1037 44.2362C41.4102 44.2334 41.8076 44.2277 42.0521 44.2162C41.7697 44.4939 41.2473 44.8891 40.894 45.0071C40.9039 44.88 40.9019 44.6278 40.8987 44.4467V44.4462ZM44.9975 47.19C44.6345 47.75 40.1627 47.75 40.1627 46.845C40.1627 45.8188 42.8733 46.1526 43.8646 46.1526C45.0372 46.1521 45.2793 46.7539 44.9975 47.19ZM45.0124 42.96C44.8227 43.1736 44.7041 43.4409 44.6731 43.7248C44.6421 44.0088 44.7002 44.2954 44.8393 44.5449C44.8453 44.7405 44.7982 44.9341 44.7031 45.1051C44.6081 45.2762 44.4686 45.4183 44.2993 45.5166C43.7019 45.5186 41.567 45.5228 41.0969 45.5236C41.8429 45.2055 42.5103 44.7282 43.0524 44.125C43.3881 43.733 42.7176 43.4359 42.495 43.1975C42.4943 43.1706 42.0779 42.2689 43.6066 42.2689C43.7086 42.2689 44.5605 42.261 44.8844 42.2569C45.291 42.3269 45.248 42.6858 45.0124 42.96ZM46.6224 43.76C46.856 44.7714 45.3359 44.9262 45.2924 43.9147C45.2283 43.0627 46.4544 42.952 46.6225 43.76H46.6224ZM47.2524 38.49C47.0753 39.2919 47.0738 40.1149 47.019 40.9284C46.8978 41.6373 46.3019 41.7267 45.6879 41.6373C43.8861 41.6151 42.0679 41.6073 40.2615 41.6106C39.7749 41.5574 39.1882 41.5149 38.9163 41.0772C38.7122 40.6796 38.9182 40.2843 39.3046 40.1416C40.9237 40.3261 41.8972 37.2842 39.8378 37.4029C39.8073 37.4047 39.7768 37.398 39.7499 37.3835C39.7229 37.3689 39.7006 37.3472 39.6853 37.3206C39.67 37.2941 39.6625 37.2638 39.6634 37.2332C39.6644 37.2026 39.6739 37.1729 39.6908 37.1474C39.9991 36.6945 40.4381 36.656 40.8308 36.7282C41.2452 36.8044 41.4229 36.2105 41.0071 36.0882C40.0236 35.6849 40.9665 34.0721 41.4381 33.5534C41.9197 34.0753 42.8938 35.6639 41.8932 36.0888C41.4789 36.2104 41.6548 36.8036 42.0693 36.7274C42.4662 36.6544 43.0593 36.7338 43.2442 37.2033C43.2539 37.229 43.2569 37.2567 43.253 37.2838C43.2492 37.311 43.2386 37.3367 43.2222 37.3587C43.2058 37.3807 43.1841 37.3982 43.1592 37.4096C43.1343 37.421 43.1069 37.426 43.0795 37.4241C42.3967 37.3764 41.7762 37.7136 41.7713 38.5775C41.827 40.4111 44.5775 40.354 45.3529 39.0402C45.7254 38.4726 45.7439 37.7791 45.9467 37.1478C46.3767 35.5645 47.8198 34.5447 49.3967 35.2388C48.2276 35.9386 47.5347 37.1186 47.2522 38.49H47.2524ZM50.7339 30.7474C50.5682 31.2614 50.369 31.7639 50.1377 32.2519C49.8194 32.738 49.3986 33.1654 49.0699 32.5993C48.8425 32.1325 49.152 31.5574 49.2609 31.0946C49.5944 30.2249 49.7995 29.3112 49.8695 28.3824C50.0636 27.6551 49.6674 26.6429 50.3416 26.1206C52.0472 25.456 51.005 30.0237 50.7337 30.7473L50.7339 30.7474Z" fill="#FFD700"/>
<path d="M28.9779 19.0267C30.6303 18.9967 30.6301 16.5409 28.9779 16.5116C27.3256 16.5412 27.3259 18.9973 28.9779 19.0267ZM28.3314 17.68C28.3702 17.2209 29.0503 16.8837 29.3395 17.3281C29.4695 17.5288 29.5356 17.7425 29.3732 18.0095C29.0833 18.5363 28.2508 18.2751 28.3314 17.68Z" fill="#FF0000"/>
<path d="M28.9782 21.6515C27.6085 21.676 27.6091 23.7115 28.9782 23.7358C30.3476 23.7112 30.3474 21.6758 28.9782 21.6515ZM29.2184 23.0062C28.9871 23.1811 28.47 22.9043 28.49 22.5961C28.5061 22.5198 28.5397 22.4483 28.5882 22.3872C28.6367 22.3262 28.6988 22.2773 28.7695 22.2444C28.8402 22.2116 28.9176 22.1957 28.9955 22.1979C29.0734 22.2002 29.1497 22.2206 29.2184 22.2576C29.2507 22.3028 29.2737 22.354 29.2861 22.4082C29.2984 22.4624 29.2999 22.5185 29.2904 22.5733C29.3355 22.5961 29.316 22.7681 29.2861 22.815C29.2561 22.8618 29.2641 22.9746 29.2184 23.0062Z" fill="#FF0000"/>
<path d="M29.2009 33.1761C28.8316 32.8193 28.2668 33.3485 28.6262 33.7279C28.9919 34.0761 29.5513 33.55 29.2009 33.1761Z" fill="#FF0000"/>
</g>
<defs>
<filter id="filter0_d_97_6" x="-0.0102539" y="0" width="58" height="58" filterUnits="userSpaceOnUse" color-interpolation-filters="sRGB">
<feFlood flood-opacity="0" result="BackgroundImageFix"/>
<feColorMatrix in="SourceAlpha" type="matrix" values="0 0 0 0 0 0 0 0 0 0 0 0 0 0 0 0 0 0 127 0" result="hardAlpha"/>
<feOffset dy="4"/>
<feGaussianBlur stdDeviation="2"/>
<feComposite in2="hardAlpha" operator="out"/>
<feColorMatrix type="matrix" values="0 0 0 0 0 0 0 0 0 0 0 0 0 0 0 0 0 0 0.25 0"/>
<feBlend mode="normal" in2="BackgroundImageFix" result="effect1_dropShadow_97_6"/>
<feBlend mode="normal" in="SourceGraphic" in2="effect1_dropShadow_97_6" result="shape"/>
</filter>
<clipPath id="clip0_97_6">
<rect width="50" height="50" fill="white" transform="translate(3.98975)"/>
</clipPath>
</defs>
</svg>
