<svg width="50" height="50" viewBox="0 0 50 50" fill="none" xmlns="http://www.w3.org/2000/svg">
<path fill-rule="evenodd" clip-rule="evenodd" d="M25 27.4179L15.1673 37.2506L13.166 35.2494L22.9988 25.4167L13.166 15.584L15.1673 13.5827L25 23.4154L34.8327 13.5827L36.834 15.584L27.0012 25.4167L36.834 35.2494L34.8327 37.2506L25 27.4179ZM25 47.1698C37.244 47.1698 47.1698 37.244 47.1698 25C47.1698 12.756 37.244 2.83019 25 2.83019C12.756 2.83019 2.83019 12.756 2.83019 25C2.83019 37.244 12.756 47.1698 25 47.1698ZM25 50C38.8071 50 50 38.8071 50 25C50 11.1929 38.8071 0 25 0C11.1929 0 0 11.1929 0 25C0 38.8071 11.1929 50 25 50Z" fill="white"/>
</svg>
