<svg width="60" height="60" viewBox="0 0 60 60" fill="none" xmlns="http://www.w3.org/2000/svg">
<path d="M39.3196 22.0261L19.4294 37.7124C19.0342 38.0392 18.9025 38.6928 19.2977 39.085C19.4953 39.3464 19.7587 39.4771 20.088 39.4771C20.2856 39.4771 20.5491 39.4118 20.6808 39.2811L40.571 23.5948C40.9662 23.268 41.0979 22.6144 40.7027 22.2222C40.3734 21.7647 39.7807 21.6993 39.3196 22.0261Z" fill="#42506B"/>
<path d="M24.7637 29.0196C25.0272 29.0196 25.2906 29.0196 25.554 28.9543C28.2544 28.5621 30.1644 26.0131 29.7033 23.268C29.5057 21.9608 28.7813 20.7844 27.7275 20C26.6737 19.2157 25.3565 18.8889 24.0392 19.085C22.722 19.2811 21.5365 20 20.7461 21.0458C19.9558 22.0915 19.6265 23.3987 19.8241 24.7059C20.2192 27.2549 22.3927 29.0196 24.7637 29.0196ZM24.3027 21.1111C24.4344 21.1111 24.632 21.0458 24.7637 21.0458C26.2127 21.0458 27.5299 22.0915 27.7275 23.5948C27.9909 25.2288 26.8713 26.7321 25.2247 26.9935C23.5782 27.2549 22.0634 26.1438 21.7999 24.5098C21.5365 22.8759 22.722 21.3726 24.3027 21.1111Z" fill="#42506B"/>
<path d="M35.3019 32.2876C32.5357 32.2876 30.2964 34.5098 30.2964 37.2549C30.2964 40 32.5357 42.2222 35.3019 42.2222C38.0681 42.2222 40.3074 40 40.3074 37.2549C40.2415 34.5098 38.0022 32.2876 35.3019 32.2876ZM35.3019 40.1961C33.6553 40.1961 32.2722 38.8235 32.2722 37.1896C32.2722 35.5556 33.6553 34.183 35.3019 34.183C36.9484 34.183 38.3315 35.5556 38.3315 37.1896C38.2656 38.8889 36.9484 40.1961 35.3019 40.1961Z" fill="#42506B"/>
<path d="M59.9341 30C59.9341 29.9346 60 29.8039 60 29.7386C60 26.9281 57.0362 25.4902 54.4676 24.2484C52.6235 23.3333 50.6476 22.3529 50.1207 21.1765C49.5939 19.9346 50.3183 17.9085 51.0428 16.0131C52.0307 13.3333 53.0187 10.5882 51.1745 8.75817C49.3304 6.9281 46.6959 7.5817 44.0615 8.16993C42.2173 8.56209 40.3074 9.01961 39.056 8.49673C37.8046 7.97386 36.7508 6.33987 35.7629 4.77124C34.3139 2.54902 32.7333 0 29.9671 0C27.2009 0 25.6202 2.54902 24.2371 4.8366C23.2492 6.47059 22.2613 8.10458 21.0099 8.62745C19.7585 9.15033 17.7827 8.69281 15.9385 8.23529C13.3041 7.5817 10.6037 6.92811 8.82547 8.69281C6.98134 10.5229 7.9034 13.268 8.75961 15.9477C9.41822 17.9085 10.011 19.8693 9.48408 21.1765C8.95719 22.4183 7.11306 23.3333 5.3348 24.2484C2.83205 25.5556 0 26.9935 0 29.7386C0 29.8039 -6.3792e-08 29.9346 0.0658616 30C0.0658616 30.0654 0 30.1961 0 30.2614C0 33.0065 2.83205 34.5098 5.3348 35.7516C7.11306 36.6667 8.95719 37.5817 9.48408 38.8235C10.011 40.0654 9.35236 42.0915 8.75961 44.0523C7.9034 46.732 6.98134 49.4771 8.82547 51.3072C10.6696 53.1373 13.3699 52.4183 15.9385 51.7647C17.7827 51.3072 19.7585 50.8497 21.0099 51.3725C22.2613 51.8954 23.2492 53.5294 24.2371 55.1634C25.6202 57.451 27.2009 60 29.9671 60C32.7333 60 34.3798 57.451 35.7629 55.2288C36.7508 53.6601 37.8046 52.0261 39.056 51.5033C40.3732 50.9804 42.2173 51.3725 44.0615 51.8301C46.6301 52.4183 49.3304 53.0719 51.1745 51.2418C53.0187 49.4118 52.0307 46.6667 51.0428 43.9869C50.3183 42.0261 49.5939 40.0654 50.1207 38.8235C50.6476 37.5817 52.5576 36.6667 54.4676 35.7516C57.0362 34.4444 60 33.0065 60 30.2614C60 30.1307 59.9341 30.0654 59.9341 30ZM53.5456 33.9869C51.3721 35.098 49.067 36.2092 48.2766 38.1046C47.4204 40.0654 48.3425 42.4183 49.1328 44.7059C49.9232 46.8627 50.7135 48.9542 49.7256 49.8693C48.6718 50.915 46.6301 50.4575 44.4566 49.9346C42.2832 49.4118 40.1098 48.9542 38.1998 49.7386C36.3557 50.5229 35.1701 52.3529 34.0505 54.183C32.7991 56.1438 31.6136 58.0392 29.9012 58.0392C28.2547 58.0392 27.0692 56.1438 25.8178 54.1176C24.6981 52.2222 23.5126 50.3268 21.6685 49.5425C19.7585 48.7582 17.5192 49.281 15.3458 49.8693C13.1723 50.3922 11.1306 50.915 10.0768 49.9346C9.08891 48.9543 9.74753 46.8627 10.472 44.7059C11.1965 42.4183 11.9868 40.0654 11.1306 38.1699C10.3403 36.2745 8.16685 35.1634 6.05928 34.1176C3.88584 33.0065 1.84413 31.9608 1.84413 30.3268C1.84413 30.2614 1.84413 30.1307 1.77827 30.0654C1.77827 30 1.84413 29.8693 1.84413 29.8039C1.84413 28.2353 3.88584 27.1895 6.05928 26.0131C8.16685 24.9673 10.3403 23.8562 11.1306 21.9608C11.921 20 11.1965 17.6471 10.472 15.4248C9.74753 13.2026 9.08891 11.1111 10.0768 10.1961C11.1306 9.15033 13.1723 9.6732 15.3458 10.2614C17.5192 10.7843 19.7585 11.3725 21.6685 10.5882C23.5126 9.80392 24.6981 7.9085 25.8178 6.01307C27.0692 3.98693 28.1888 2.0915 29.9012 2.0915C31.6136 2.0915 32.7991 3.98693 34.0505 5.94771C35.236 7.77778 36.4215 9.60784 38.1998 10.3922C40.1098 11.1765 42.2832 10.6536 44.4566 10.1961C46.6301 9.6732 48.6718 9.21569 49.7256 10.2614C50.7135 11.1765 49.9232 13.268 49.1328 15.4248C48.2766 17.7124 47.4204 20.0654 48.2766 22.0261C49.067 23.9216 51.3721 25.0327 53.5456 26.1438C55.8507 27.2549 57.9583 28.366 57.9583 29.9346C57.9583 30 57.9583 30.1307 58.0241 30.1961C58.0241 30.2614 57.9583 30.3922 57.9583 30.4575C58.0241 31.7647 55.8507 32.8758 53.5456 33.9869Z" fill="#42506B"/>
</svg>
