<svg width="20" height="21" viewBox="0 0 20 21" fill="none" xmlns="http://www.w3.org/2000/svg">
<path fill-rule="evenodd" clip-rule="evenodd" d="M17.086 3.27169C15.2059 1.39841 12.7056 0.366321 10.0417 0.365234C4.55296 0.365234 0.0856553 4.81082 0.0835129 10.2751C0.0827449 12.0218 0.541299 13.7267 1.41277 15.2297L0 20.3652L5.27899 18.9871C6.73347 19.7766 8.37111 20.1928 10.0378 20.1934H10.0418C10.0415 20.1934 10.0421 20.1934 10.0418 20.1934C15.53 20.1934 19.9977 15.7473 20 10.283C20.001 7.63485 18.9661 5.14489 17.086 3.27169ZM10.0418 18.5196H10.0384C8.5533 18.5191 7.09659 18.1219 5.82578 17.3714L5.52358 17.1929L2.39095 18.0107L3.22714 14.9711L3.03032 14.6594C2.20182 13.3479 1.76424 11.8321 1.76489 10.2756C1.76667 5.73397 5.47972 2.03906 10.0451 2.03906C12.2558 2.03974 14.334 2.89771 15.8967 4.45471C17.4594 6.01171 18.3195 8.08131 18.3186 10.2823C18.3167 14.8243 14.6038 18.5196 10.0418 18.5196Z" fill="white"/>
<path fill-rule="evenodd" clip-rule="evenodd" d="M14.5819 12.3503C14.3331 12.2263 13.1098 11.6274 12.8817 11.5447C12.6537 11.462 12.4878 11.4207 12.3219 11.6686C12.1561 11.9165 11.6792 12.4743 11.534 12.6396C11.3889 12.8048 11.2437 12.8256 10.995 12.7015C10.7462 12.5775 9.94441 12.3161 8.99404 11.4724C8.2543 10.8158 7.75496 10.0049 7.60976 9.75695C7.46465 9.50909 7.59432 9.37509 7.71891 9.25158C7.83084 9.14059 7.96775 8.96238 8.09217 8.81775C8.21655 8.67321 8.25802 8.56982 8.34097 8.40468C8.42392 8.23937 8.38248 8.09475 8.32023 7.97084C8.25802 7.8469 7.76042 6.62802 7.55309 6.13212C7.35106 5.64932 7.14596 5.71474 6.9932 5.70705C6.84828 5.69985 6.68219 5.69836 6.51633 5.69836C6.35048 5.69836 6.08086 5.76036 5.85284 6.00821C5.62477 6.25614 4.98193 6.85528 4.98193 8.07403C4.98193 9.29294 5.87353 10.4705 5.99795 10.6357C6.12233 10.801 7.7525 13.3022 10.2485 14.3748C10.8422 14.63 11.3056 14.7823 11.667 14.8964C12.263 15.0849 12.8055 15.0583 13.2342 14.9945C13.7123 14.9234 14.7064 14.3955 14.9137 13.8171C15.121 13.2386 15.121 12.7428 15.0588 12.6395C14.9966 12.5363 14.8307 12.4743 14.5819 12.3503Z" fill="white"/>
</svg>
