<svg width="30" height="30" viewBox="0 0 46 46" fill="none" xmlns="http://www.w3.org/2000/svg">
<path fill-rule="evenodd" clip-rule="evenodd" d="M39.2978 6.68484C34.9735 2.37629 29.2229 0.00249825 23.096 0C10.4718 0 0.197007 10.2249 0.19208 22.7926C0.190313 26.8102 1.24499 30.7315 3.24937 34.1882L0 46L12.1417 42.8303C15.487 44.6462 19.2536 45.6034 23.0869 45.6047H23.0962C23.0954 45.6047 23.0969 45.6047 23.0962 45.6047C35.7191 45.6047 45.9947 35.3789 46 22.8108C46.0022 16.7201 43.6221 10.9932 39.2978 6.68484ZM23.0961 41.7551H23.0884C19.6726 41.7538 16.3221 40.8404 13.3993 39.1143L12.7042 38.7037L5.4992 40.5846L7.42241 33.5934L6.96973 32.8765C5.06418 29.8601 4.05776 26.3737 4.05925 22.7939C4.06334 12.3481 12.6034 3.8498 23.1038 3.8498C28.1884 3.85137 32.9682 5.8247 36.5624 9.4058C40.1565 12.9869 42.1348 17.747 42.1327 22.8093C42.1285 33.2559 33.5887 41.7551 23.0961 41.7551Z" fill="white"/>
<path fill-rule="evenodd" clip-rule="evenodd" d="M33.538 27.5658C32.9658 27.2807 30.1521 25.9031 29.6275 25.7128C29.103 25.5228 28.7214 25.4278 28.3399 25.9979C27.9585 26.568 26.8617 27.851 26.5278 28.2312C26.1941 28.6111 25.8601 28.6589 25.288 28.3736C24.7157 28.0885 22.8717 27.4871 20.6858 25.5468C18.9845 24.0364 17.836 22.1714 17.502 21.6011C17.1682 21.031 17.4665 20.7228 17.753 20.4388C18.0105 20.1835 18.3254 19.7736 18.6115 19.4409C18.8976 19.1085 18.993 18.8707 19.1838 18.4909C19.3746 18.1107 19.2793 17.778 19.1361 17.4931C18.993 17.208 17.8485 14.4046 17.3717 13.264C16.907 12.1536 16.4353 12.304 16.0839 12.2863C15.7506 12.2698 15.3686 12.2664 14.9871 12.2664C14.6057 12.2664 13.9855 12.4089 13.4611 12.979C12.9365 13.5493 11.458 14.9273 11.458 17.7304C11.458 20.5339 13.5087 23.2422 13.7949 23.6222C14.0809 24.0025 17.8303 29.7551 23.5711 32.2222C24.9365 32.8091 26.0025 33.1595 26.8336 33.4219C28.2046 33.8555 29.4522 33.7942 30.4382 33.6475C31.5378 33.484 33.8242 32.2698 34.301 30.9395C34.778 29.609 34.778 28.4685 34.6348 28.2311C34.4918 27.9936 34.1102 27.851 33.538 27.5658Z" fill="white"/>
</svg>
